<svg width="863" height="1152" viewBox="0 0 863 1152" fill="none" xmlns="http://www.w3.org/2000/svg">
<path d="M-728.211 1151.99H-363.564C-342.192 1151.99 -330.692 1145.41 -319.181 1130.59L-82.4744 808.896C-77.5441 802.318 -72.6138 794.088 -72.6138 785.858C-72.6138 774.334 -84.1247 767.756 -103.846 767.756H-240.007C-261.379 767.756 -272.879 757.884 -272.879 744.717C-272.879 736.487 -267.949 728.257 -263.019 721.679L-46.0334 430.073C-41.1031 423.495 -36.1728 415.265 -36.1728 407.035C-36.1728 393.869 -47.6837 383.997 -69.045 383.997H-230.415C-251.786 383.997 -263.287 375.766 -263.287 362.6C-263.287 354.37 -258.356 344.498 -253.426 337.91L-42.7431 57.6005C-31.2322 42.7925 -14.8012 37.8565 9.59634e-06 37.8565C14.8013 37.8565 31.2322 42.7925 42.7431 57.6005L253.426 337.92C258.356 344.498 263.287 354.381 263.287 362.611C263.287 375.777 251.776 384.007 230.414 384.007H69.0449C47.6734 384.007 36.1728 393.879 36.1728 407.045C36.1728 415.275 41.1031 423.505 46.0334 430.083L263.018 721.69C267.949 728.268 272.879 736.498 272.879 744.728C272.879 757.894 261.368 767.766 240.007 767.766H103.846C84.1247 767.766 72.6138 774.344 72.6138 785.868C72.6138 794.098 77.5441 802.328 82.4744 808.906L319.181 1130.6C330.692 1145.41 343.843 1152 363.564 1152H728.211C754.512 1152 769.303 1142.13 769.303 1125.67C769.303 1115.8 764.373 1105.92 759.443 1099.34L545.748 808.906C540.818 802.328 535.887 794.098 535.887 785.868C535.887 774.344 547.398 767.766 567.12 767.766H823.547C849.849 767.766 863 757.894 863 741.434C863 731.562 858.07 721.69 853.139 715.101L328.753 19.744C318.892 6.5779 309.031 0 286.009 0H-302.471C-317.262 0 -333.704 3.29412 -345.214 19.744L-853.139 715.091C-859.71 724.963 -863 733.193 -863 741.423C-863 757.884 -849.849 767.756 -823.547 767.756H-567.12C-547.398 767.756 -535.887 774.334 -535.887 785.858C-535.887 794.088 -540.818 802.318 -545.748 808.896L-759.443 1099.33C-764.373 1105.9 -769.304 1115.79 -769.304 1125.66C-769.304 1142.12 -754.513 1151.99 -728.211 1151.99Z" fill="url(#paint0_linear_5_223)"/>
<defs>
<linearGradient id="paint0_linear_5_223" x1="782" y1="1279.5" x2="-569.232" y2="-296.016" gradientUnits="userSpaceOnUse">
<stop stop-color="#00995D"/>
<stop offset="1" stop-color="#B1D34B"/>
</linearGradient>
</defs>
</svg>
