<svg width="27" height="27" viewBox="0 0 27 27" fill="none" xmlns="http://www.w3.org/2000/svg">
<path d="M13 1.81825C10.9291 1.81963 8.89386 2.3569 7.09213 3.37781C5.2904 4.39873 3.78353 5.86854 2.71808 7.64429C1.65263 9.42005 1.06485 11.4413 1.01192 13.5115C0.958982 15.5817 1.44269 17.6304 2.416 19.4582L1 25.8182L7.36 24.4022C8.96931 25.2621 10.7535 25.7436 12.5769 25.8102C14.4003 25.8768 16.2149 25.5268 17.8827 24.7866C19.5504 24.0465 21.0275 22.9358 22.2014 21.5389C23.3754 20.1421 24.2153 18.496 24.6574 16.7257C25.0995 14.9555 25.1321 13.1077 24.7527 11.323C24.3733 9.53826 23.5919 7.86354 22.4679 6.42621C21.3439 4.98887 19.907 3.82677 18.2664 3.02829C16.6257 2.22981 14.8246 1.81597 13 1.81825Z" stroke="#004E4C" stroke-width="2" stroke-miterlimit="10" stroke-linejoin="round"/>
<path d="M15.856 15.5342L19.288 18.9662C19.288 18.9662 14.716 23.5382 9.004 17.7662C3.292 11.9942 7.804 7.48224 7.804 7.48224L11.236 10.9142L11.176 11.0342C10.8584 11.6645 10.7488 12.3793 10.8631 13.0758C10.9774 13.7722 11.3096 14.4145 11.812 14.9102C12.3077 15.4126 12.95 15.7449 13.6465 15.8592C14.3429 15.9734 15.0577 15.8639 15.688 15.5462L15.856 15.5342Z" stroke="#004E4C" stroke-width="2" stroke-miterlimit="10" stroke-linejoin="round"/>
</svg>
