<svg width="85" height="85" viewBox="0 0 85 85" fill="none" xmlns="http://www.w3.org/2000/svg">
<path d="M42.5 17.0521C46.5185 17.0521 49.7762 13.7944 49.7762 9.77587C49.7762 5.75735 46.5185 2.49969 42.5 2.49969C38.4815 2.49969 35.2238 5.75735 35.2238 9.77587C35.2238 13.7944 38.4815 17.0521 42.5 17.0521ZM42.5 17.0521C39.6104 17.0521 36.8392 18.1999 34.7959 20.2432C32.7527 22.2864 31.6048 25.0577 31.6048 27.9473M42.5 17.0521C45.3896 17.0521 48.1608 18.1999 50.2041 20.2432C52.2473 22.2864 53.3952 25.0577 53.3952 27.9473M71.6047 60.671C75.6232 60.671 78.8809 57.4134 78.8809 53.3948C78.8809 49.3763 75.6232 46.1187 71.6047 46.1187C67.5862 46.1187 64.3285 49.3763 64.3285 53.3948C64.3285 57.4134 67.5862 60.671 71.6047 60.671ZM71.6047 60.671C70.1675 60.666 68.7435 60.9454 67.4148 61.493C66.086 62.0407 64.8787 62.8458 63.8625 63.8621C62.8462 64.8783 62.0411 66.0856 61.4934 67.4144C60.9457 68.7432 60.6664 70.1671 60.6714 71.6043M71.6047 60.671C73.0387 60.671 74.4586 60.9541 75.7829 61.504C77.1073 62.0539 78.3101 62.8599 79.3223 63.8756C80.3345 64.8914 81.1362 66.0969 81.6815 67.4232C82.2268 68.7495 82.5049 70.1704 82.4999 71.6043M13.3953 60.671C17.4138 60.671 20.6715 57.4134 20.6715 53.3948C20.6715 49.3763 17.4138 46.1187 13.3953 46.1187C9.37676 46.1187 6.11911 49.3763 6.11911 53.3948C6.11911 57.4134 9.37676 60.671 13.3953 60.671ZM13.3953 60.671C11.9613 60.671 10.5414 60.9541 9.21705 61.504C7.89269 62.0539 6.68992 62.8599 5.6777 63.8756C4.66549 64.8914 3.86375 66.0969 3.31846 67.4232C2.77317 68.7495 2.49505 70.1704 2.50007 71.6043M13.3953 60.671C14.8325 60.666 16.2565 60.9454 17.5852 61.493C18.914 62.0407 20.1213 62.8458 21.1375 63.8621C22.1538 64.8783 22.9589 66.0856 23.5066 67.4144C24.0543 68.7432 24.3336 70.1671 24.3286 71.6043M6.1953 40.0996C6.5958 34.022 8.51895 28.1429 11.7876 23.0035C15.0563 17.8641 19.5655 13.6297 24.9 10.6902M60.1 10.6902C65.4345 13.6297 69.9436 17.8641 73.2123 23.0035C76.481 28.1429 78.4042 34.022 78.8047 40.0996M28.7476 79.7948C37.561 83.4022 47.439 83.4022 56.2524 79.7948" stroke="#B1D34B" stroke-width="4" stroke-miterlimit="10"/>
</svg>
