<svg width="33" height="32" viewBox="0 0 33 32" fill="none" xmlns="http://www.w3.org/2000/svg">
<path d="M25.2667 2H7.45333C4.64036 2 2.36 4.28036 2.36 7.09333V24.9067C2.36 27.7196 4.64036 30 7.45333 30H25.2667C28.0796 30 30.36 27.7196 30.36 24.9067V7.09333C30.36 4.28036 28.0796 2 25.2667 2Z" stroke="white" stroke-width="2" stroke-miterlimit="10"/>
<path d="M16.36 22.3599C19.8725 22.3599 22.72 19.5124 22.72 15.9999C22.72 12.4874 19.8725 9.63989 16.36 9.63989C12.8475 9.63989 10 12.4874 10 15.9999C10 19.5124 12.8475 22.3599 16.36 22.3599Z" stroke="white" stroke-width="2" stroke-miterlimit="10"/>
<path d="M24.6267 9.63999C25.6797 9.63999 26.5333 8.78635 26.5333 7.73333C26.5333 6.6803 25.6797 5.82666 24.6267 5.82666C23.5736 5.82666 22.72 6.6803 22.72 7.73333C22.72 8.78635 23.5736 9.63999 24.6267 9.63999Z" fill="white"/>
</svg>
