<svg width="36" height="36" viewBox="0 0 36 36" fill="none" xmlns="http://www.w3.org/2000/svg">
<path d="M17.99 2.00001C15.2289 2.00185 12.5152 2.71822 10.1129 4.07944C7.71055 5.44066 5.7014 7.4004 4.28079 9.76807C2.86019 12.1357 2.07649 14.8308 2.00591 17.591C1.93533 20.3513 2.58027 23.0828 3.87802 25.52L1.99002 34L10.47 32.112C12.6158 33.2585 14.9947 33.9005 17.4259 33.9893C19.8571 34.0781 22.2766 33.6114 24.5003 32.6245C26.7239 31.6376 28.6933 30.1567 30.2586 28.2943C31.8238 26.4319 32.9438 24.237 33.5332 21.8767C34.1227 19.5163 34.1661 17.0527 33.6603 14.673C33.1544 12.2934 32.1125 10.0604 30.6139 8.14396C29.1153 6.22751 27.1993 4.67805 25.0118 3.61341C22.8243 2.54876 20.4228 1.99698 17.99 2.00001Z" stroke="white" stroke-width="3" stroke-miterlimit="10" stroke-linejoin="round"/>
<path d="M21.798 20.288L26.374 24.864C26.374 24.864 20.278 30.96 12.662 23.264C5.04602 15.568 11.062 9.55201 11.062 9.55201L15.638 14.128L15.558 14.288C15.1345 15.1284 14.9884 16.0814 15.1408 17.01C15.2932 17.9387 15.7362 18.7951 16.406 19.456C17.067 20.1259 17.9234 20.5688 18.852 20.7212C19.7806 20.8736 20.7337 20.7275 21.574 20.304L21.798 20.288Z" stroke="white" stroke-width="3" stroke-miterlimit="10" stroke-linejoin="round"/>
</svg>
