<svg width="37" height="44" viewBox="0 0 37 44" fill="none" xmlns="http://www.w3.org/2000/svg">
<path d="M18.3619 10.5857C19.801 10.5857 21.2078 11.0124 22.4043 11.8119C23.6009 12.6114 24.5335 13.7478 25.0842 15.0774C25.635 16.407 25.7791 17.87 25.4983 19.2814C25.2175 20.6929 24.5246 21.9894 23.507 23.007C22.4894 24.0246 21.1929 24.7176 19.7814 24.9983C18.37 25.2791 16.907 25.135 15.5774 24.5842C14.2478 24.0335 13.1114 23.1009 12.3119 21.9043C11.5124 20.7078 11.0857 19.301 11.0857 17.8619M34.7238 17.8619C34.7238 30.5857 18.3619 41.5 18.3619 41.5C18.3619 41.5 2 30.5857 2 17.8619C2 13.5224 3.72384 9.36073 6.79229 6.29229C9.86073 3.22384 14.0224 1.5 18.3619 1.5C22.7013 1.5 26.863 3.22384 29.9315 6.29229C32.9999 9.36073 34.7238 13.5224 34.7238 17.8619Z" stroke="#B1D34B" stroke-width="3" stroke-miterlimit="10" stroke-linecap="round"/>
</svg>
