<svg width="85" height="85" viewBox="0 0 85 85" fill="none" xmlns="http://www.w3.org/2000/svg">
<path d="M71.6048 31.5494H64.3286V60.5608H71.6048M71.6048 31.5494C74.4944 31.5494 77.2656 32.6951 79.3089 34.7345C81.3521 36.7739 82.5 39.5398 82.5 42.424V49.6863C82.5 52.5704 81.3521 55.3364 79.3089 57.3758C77.2656 59.4151 74.4944 60.5608 71.6048 60.5608M71.6048 31.5494C71.6048 23.845 68.5384 16.4562 63.0802 11.0084C57.622 5.56056 50.2191 2.5 42.5 2.5C34.7809 2.5 27.378 5.56056 21.9198 11.0084C16.4616 16.4562 13.3952 23.845 13.3952 31.5494M71.6048 60.5608V64.3631C71.5947 69.1768 69.6717 73.7899 66.2579 77.1901C62.844 80.5904 58.2181 82.5 53.3952 82.5M13.3952 31.5494C11.9645 31.5494 10.5477 31.8307 9.22581 32.3772C7.90394 32.9237 6.70286 33.7247 5.69114 34.7345C4.67942 35.7443 3.87689 36.9431 3.32935 38.2625C2.78181 39.5818 2.5 40.9959 2.5 42.424V49.6863C2.5 52.5704 3.64789 55.3364 5.69114 57.3758C7.73439 59.4151 10.5056 60.5608 13.3952 60.5608H20.6714V31.5494H13.3952ZM42.481 17.0247C54.526 17.0247 64.2905 26.7791 64.2905 38.8118V53.2985C64.2905 65.3311 54.526 75.0855 42.481 75.0855C30.4359 75.0855 20.6714 65.3311 20.6714 53.2985V38.8118C20.6714 26.7791 30.4359 17.0247 42.481 17.0247Z" stroke="#B1D34B" stroke-width="4" stroke-miterlimit="10"/>
</svg>
