<svg width="85" height="84" viewBox="0 0 85 84" fill="none" xmlns="http://www.w3.org/2000/svg">
<path d="M31.6048 23.8286H53.3952M42.5 12.8952V34.7238M31.6048 52.8952H38.881M46.119 52.8952H53.3952M17.0524 52.8952H24.3286M17.0524 67.4476H24.3286M60.6714 52.8952H67.9476M60.6714 67.4476H67.9476M49.7762 82H82.5V45.8095L67.9476 31.1048V27.2952C67.9074 20.5726 65.2085 14.1389 60.4405 9.39948C55.6725 4.66003 49.2228 1.99988 42.5 2C35.7509 2 29.2782 4.68108 24.5058 9.45344C19.7335 14.2258 17.0524 20.6985 17.0524 27.4476V31.2571L2.5 45.8095V82H35.2238V67.4476H49.7762V82Z" stroke="#B1D34B" stroke-width="4" stroke-miterlimit="10"/>
</svg>
